<?xml version="1.0" standalone="no"?>
<!DOCTYPE svg PUBLIC "-//W3C//DTD SVG 20010904//EN"
 "http://www.w3.org/TR/2001/REC-SVG-20010904/DTD/svg10.dtd">
<svg version="1.0" xmlns="http://www.w3.org/2000/svg"
 width="295.000000pt" height="295.000000pt" viewBox="0 0 295.000000 295.000000"
 preserveAspectRatio="xMidYMid meet">
<metadata>
Created by potrace 1.11, written by Peter Selinger 2001-2013
</metadata>
<g transform="translate(0.000000,295.000000) scale(0.100000,-0.100000)"
fill="#000000" stroke="none">
<path d="M695 2927 c-25 -22 -30 -35 -259 -709 -38 -112 -66 -209 -64 -225 3
-24 14 -33 76 -64 70 -35 359 -223 374 -244 4 -5 8 -45 8 -88 l0 -77 -32 5
c-17 3 -35 8 -39 11 -18 11 -24 -22 -44 -246 -3 -25 -7 -63 -9 -85 -3 -22 -8
-67 -11 -100 -3 -33 -8 -76 -10 -95 -3 -19 -7 -60 -10 -90 -6 -56 -9 -80 -21
-185 -3 -33 -8 -73 -9 -90 -2 -16 -6 -61 -10 -100 -14 -129 -19 -119 80 -144
75 -19 95 -27 96 -41 0 -8 2 -24 4 -35 5 -25 18 -194 17 -217 0 -10 5 -18 11
-19 12 -1 44 -4 148 -12 43 -4 68 -12 83 -26 14 -13 42 -23 77 -27 29 -3 73
-9 97 -14 24 -4 83 -6 130 -5 166 6 317 17 324 23 8 8 14 41 23 122 3 30 7 55
8 56 1 1 34 4 72 7 39 3 79 8 90 11 11 3 47 12 81 19 33 8 65 17 71 20 6 4 9
26 7 49 -4 57 -14 214 -20 308 -2 41 -6 108 -9 149 -5 66 -11 168 -20 316 -1
28 -6 104 -10 170 -5 66 -9 128 -9 138 0 14 -10 17 -51 19 -76 2 -80 3 -76 18
2 8 4 20 5 25 4 25 18 32 58 29 69 -4 301 -16 323 -15 28 0 51 33 70 99 32
113 62 213 137 452 11 36 21 70 22 75 2 11 69 225 93 295 l15 45 -39 33 c-21
19 -146 106 -278 194 -132 89 -262 177 -288 196 -76 55 -179 69 -552 77 -748
17 -702 17 -730 -8z"/>
</g>
</svg>
